<svg width="44" height="44" viewBox="0 0 44 44" fill="none" xmlns="http://www.w3.org/2000/svg">
<g id="mark-chat-read">
<g id="Vector" filter="url(#filter0_d_2031_5800)">
<path d="M29.5667 27.7203C29.4433 27.8439 29.2968 27.942 29.1355 28.0089C28.9742 28.0758 28.8013 28.1103 28.6267 28.1103C28.4521 28.1103 28.2792 28.0758 28.1179 28.0089C27.9566 27.942 27.81 27.8439 27.6867 27.7203L24.86 24.8937C24.7366 24.7702 24.6387 24.6237 24.5719 24.4624C24.505 24.3011 24.4707 24.1282 24.4707 23.9537C24.4707 23.7791 24.505 23.6062 24.5719 23.4449C24.6387 23.2836 24.7366 23.1371 24.86 23.0137C24.9835 22.8902 25.13 22.7923 25.2913 22.7255C25.4526 22.6587 25.6254 22.6243 25.8 22.6243C25.9746 22.6243 26.1475 22.6587 26.3087 22.7255C26.47 22.7923 26.6166 22.8902 26.74 23.0137L28.62 24.8937L33.34 20.1737C33.4635 20.0502 33.61 19.9523 33.7713 19.8855C33.9326 19.8187 34.1054 19.7843 34.28 19.7843C34.4546 19.7843 34.6275 19.8187 34.7887 19.8855C34.95 19.9523 35.0966 20.0502 35.22 20.1737C35.3435 20.2971 35.4414 20.4436 35.5082 20.6049C35.575 20.7662 35.6094 20.9391 35.6094 21.1137C35.6094 21.2882 35.575 21.4611 35.5082 21.6224C35.4414 21.7837 35.3435 21.9302 35.22 22.0537L29.5667 27.7203ZM21.5 24.667C21.4993 23.0923 21.8972 21.5431 22.6568 20.1637C23.4164 18.7843 24.5128 17.6197 25.8439 16.7784C27.1751 15.9372 28.6975 15.4466 30.2694 15.3525C31.8413 15.2584 33.4114 15.5639 34.8334 16.2403V7.33366C34.8334 5.86699 33.6334 4.66699 32.1667 4.66699H10.8334C9.36669 4.66699 8.16669 5.86699 8.16669 7.33366V31.3337L13.5 26.0003H21.5C21.5 25.7737 21.5134 25.5603 21.54 25.3337C21.5134 25.107 21.5 24.8937 21.5 24.667Z" fill="#7AF566"/>
</g>
</g>
<defs>
<filter id="filter0_d_2031_5800" x="0.166687" y="0.666992" width="43.4427" height="42.667" filterUnits="userSpaceOnUse" color-interpolation-filters="sRGB">
<feFlood flood-opacity="0" result="BackgroundImageFix"/>
<feColorMatrix in="SourceAlpha" type="matrix" values="0 0 0 0 0 0 0 0 0 0 0 0 0 0 0 0 0 0 127 0" result="hardAlpha"/>
<feOffset dy="4"/>
<feGaussianBlur stdDeviation="4"/>
<feComposite in2="hardAlpha" operator="out"/>
<feColorMatrix type="matrix" values="0 0 0 0 0.478431 0 0 0 0 0.960784 0 0 0 0 0.4 0 0 0 0.25 0"/>
<feBlend mode="normal" in2="BackgroundImageFix" result="effect1_dropShadow_2031_5800"/>
<feBlend mode="normal" in="SourceGraphic" in2="effect1_dropShadow_2031_5800" result="shape"/>
</filter>
</defs>
</svg>
