<svg width="40" height="41" viewBox="0 0 40 41" fill="none" xmlns="http://www.w3.org/2000/svg">
<g id="play-arrow">
<path id="Vector" d="M13.3333 12.1296V29.3962C13.3333 30.7129 14.7833 31.5129 15.8999 30.7962L29.4666 22.1629C29.7041 22.0126 29.8998 21.8046 30.0353 21.5584C30.1709 21.3122 30.242 21.0356 30.242 20.7546C30.242 20.4735 30.1709 20.197 30.0353 19.9507C29.8998 19.7045 29.7041 19.4965 29.4666 19.3462L15.8999 10.7296C15.6485 10.567 15.3579 10.4752 15.0587 10.4641C14.7596 10.4529 14.4629 10.5226 14.2001 10.666C13.9373 10.8094 13.718 11.021 13.5654 11.2786C13.4129 11.5362 13.3327 11.8302 13.3333 12.1296Z" fill="white"/>
</g>
</svg>
