<svg width="25" height="25" viewBox="0 0 19 19" fill="none" xmlns="http://www.w3.org/2000/svg">
<g id="Huge-icon/arrows/solid/arrow-back-circle">
<g id="arrow back circle">
<path id="Combo shape" fill-rule="evenodd" clip-rule="evenodd" d="M9.5 17C13.6421 17 17 13.6421 17 9.5C17 5.35786 13.6421 2 9.5 2C5.35786 2 2 5.35786 2 9.5C2 13.6421 5.35786 17 9.5 17ZM7.60225 5.35225C7.82192 5.13258 8.17808 5.13258 8.39775 5.35225C8.61742 5.57192 8.61742 5.92808 8.39775 6.14775L7.858 6.6875H10.25C11.8033 6.6875 13.0625 7.9467 13.0625 9.5C13.0625 11.0533 11.8033 12.3125 10.25 12.3125H6.5C6.18934 12.3125 5.9375 12.0607 5.9375 11.75C5.9375 11.4393 6.18934 11.1875 6.5 11.1875H10.25C11.182 11.1875 11.9375 10.432 11.9375 9.5C11.9375 8.56802 11.182 7.8125 10.25 7.8125H7.858L8.39775 8.35225C8.61742 8.57192 8.61742 8.92808 8.39775 9.14775C8.17808 9.36742 7.82192 9.36742 7.60225 9.14775L6.10225 7.64775C5.88258 7.42808 5.88258 7.07192 6.10225 6.85225L7.60225 5.35225Z" fill="url(#paint0_linear_1474_3403)"/>
</g>
</g>
<defs>
<linearGradient id="paint0_linear_1474_3403" x1="2.77381" y1="9.24138" x2="17.0191" y2="9.36484" gradientUnits="userSpaceOnUse">
<stop stop-color="#94C5FF"/>
<stop offset="1" stop-color="#D595F3"/>
</linearGradient>
</defs>
</svg>
