<svg width="57" height="56" viewBox="0 0 57 56" fill="none" xmlns="http://www.w3.org/2000/svg">
<g id="Vector" filter="url(#filter0_d_2031_6166)">
<path d="M43.2559 18.488V31.4066C43.2559 32.9821 41.8848 34.2711 40.209 34.2711H18.8803L12.7864 40V14.2199C12.7864 12.6445 14.1576 11.3555 15.8334 11.3555H31.2205C30.9951 12.396 31.0186 13.4706 31.2893 14.5015C31.5599 15.5324 32.071 16.4939 32.7854 17.3163C33.4999 18.1388 34.3999 18.8016 35.4203 19.2569C36.4407 19.7122 37.556 19.9485 38.6855 19.9488C40.407 19.9488 41.9762 19.3903 43.2559 18.488ZM34.1151 12.7877C34.1151 15.1652 36.1565 17.0844 38.6855 17.0844C41.2145 17.0844 43.2559 15.1652 43.2559 12.7877C43.2559 10.4102 41.2145 8.49105 38.6855 8.49105C36.1565 8.49105 34.1151 10.4102 34.1151 12.7877Z" fill="#FFF7F7"/>
<path d="M44.2135 12.9105C44.2135 15.6225 41.875 17.821 38.9902 17.821C36.1054 17.821 33.7669 15.6225 33.7669 12.9105C33.7669 10.1985 36.1054 8 38.9902 8C41.875 8 44.2135 10.1985 44.2135 12.9105Z" fill="#FF5E61"/>
</g>
<defs>
<filter id="filter0_d_2031_6166" x="0.786438" y="0" width="55.4271" height="56" filterUnits="userSpaceOnUse" color-interpolation-filters="sRGB">
<feFlood flood-opacity="0" result="BackgroundImageFix"/>
<feColorMatrix in="SourceAlpha" type="matrix" values="0 0 0 0 0 0 0 0 0 0 0 0 0 0 0 0 0 0 127 0" result="hardAlpha"/>
<feMorphology radius="4" operator="dilate" in="SourceAlpha" result="effect1_dropShadow_2031_6166"/>
<feOffset dy="4"/>
<feGaussianBlur stdDeviation="4"/>
<feComposite in2="hardAlpha" operator="out"/>
<feColorMatrix type="matrix" values="0 0 0 0 0.866667 0 0 0 0 0.150944 0 0 0 0 0.150944 0 0 0 0.25 0"/>
<feBlend mode="normal" in2="BackgroundImageFix" result="effect1_dropShadow_2031_6166"/>
<feBlend mode="normal" in="SourceGraphic" in2="effect1_dropShadow_2031_6166" result="shape"/>
</filter>
</defs>
</svg>
